<svg width="40" height="40" viewBox="0 0 40 40" fill="none" xmlns="http://www.w3.org/2000/svg">
<path d="M31.25 10V26.25C31.25 26.5815 31.1183 26.8995 30.8839 27.1339C30.6495 27.3683 30.3315 27.5 30 27.5C29.6685 27.5 29.3506 27.3683 29.1161 27.1339C28.8817 26.8995 28.75 26.5815 28.75 26.25V13.0172L10.8844 30.8844C10.6498 31.1189 10.3317 31.2507 10 31.2507C9.66832 31.2507 9.3502 31.1189 9.11565 30.8844C8.8811 30.6498 8.74933 30.3317 8.74933 30C8.74933 29.6683 8.8811 29.3502 9.11565 29.1156L26.9828 11.25H13.75C13.4185 11.25 13.1006 11.1183 12.8661 10.8839C12.6317 10.6495 12.5 10.3315 12.5 10C12.5 9.66848 12.6317 9.35054 12.8661 9.11612C13.1006 8.8817 13.4185 8.75 13.75 8.75H30C30.3315 8.75 30.6495 8.8817 30.8839 9.11612C31.1183 9.35054 31.25 9.66848 31.25 10Z" fill="#0B1E21"/>
</svg>
