<svg width="18" height="18" viewBox="0 0 18 18" fill="none" xmlns="http://www.w3.org/2000/svg">
<path d="M15.1875 3.375V6.75C15.1875 6.89918 15.1282 7.04226 15.0227 7.14775C14.9173 7.25324 14.7742 7.3125 14.625 7.3125C14.4758 7.3125 14.3327 7.25324 14.2273 7.14775C14.1218 7.04226 14.0625 6.89918 14.0625 6.75V4.73273L10.523 8.27297C10.4174 8.37852 10.2743 8.43781 10.125 8.43781C9.97573 8.43781 9.83258 8.37852 9.72703 8.27297C9.62148 8.16742 9.56219 8.02427 9.56219 7.875C9.56219 7.72573 9.62148 7.58258 9.72703 7.47703L13.2673 3.9375H11.25C11.1008 3.9375 10.9577 3.87824 10.8523 3.77275C10.7468 3.66726 10.6875 3.52418 10.6875 3.375C10.6875 3.22582 10.7468 3.08274 10.8523 2.97725C10.9577 2.87176 11.1008 2.8125 11.25 2.8125H14.625C14.7742 2.8125 14.9173 2.87176 15.0227 2.97725C15.1282 3.08274 15.1875 3.22582 15.1875 3.375ZM7.47703 9.72703L3.9375 13.2673V11.25C3.9375 11.1008 3.87824 10.9577 3.77275 10.8523C3.66726 10.7468 3.52418 10.6875 3.375 10.6875C3.22582 10.6875 3.08274 10.7468 2.97725 10.8523C2.87176 10.9577 2.8125 11.1008 2.8125 11.25V14.625C2.8125 14.7742 2.87176 14.9173 2.97725 15.0227C3.08274 15.1282 3.22582 15.1875 3.375 15.1875H6.75C6.89918 15.1875 7.04226 15.1282 7.14775 15.0227C7.25324 14.9173 7.3125 14.7742 7.3125 14.625C7.3125 14.4758 7.25324 14.3327 7.14775 14.2273C7.04226 14.1218 6.89918 14.0625 6.75 14.0625H4.73273L8.27297 10.523C8.37852 10.4174 8.43781 10.2743 8.43781 10.125C8.43781 9.97573 8.37852 9.83258 8.27297 9.72703C8.16742 9.62148 8.02427 9.56219 7.875 9.56219C7.72573 9.56219 7.58258 9.62148 7.47703 9.72703Z" fill="#0B1E21"/>
</svg>
