<svg width="18" height="19" viewBox="0 0 18 19" fill="none" xmlns="http://www.w3.org/2000/svg">
<path d="M15.1875 3.7085V7.0835C15.1875 7.23268 15.1282 7.37575 15.0227 7.48124C14.9173 7.58673 14.7742 7.646 14.625 7.646C14.4758 7.646 14.3327 7.58673 14.2273 7.48124C14.1218 7.37575 14.0625 7.23268 14.0625 7.0835V5.06623L10.523 8.60647C10.4174 8.71201 10.2743 8.77131 10.125 8.77131C9.97573 8.77131 9.83258 8.71201 9.72703 8.60647C9.62148 8.50092 9.56219 8.35776 9.56219 8.2085C9.56219 8.05923 9.62148 7.91607 9.72703 7.81053L13.2673 4.271H11.25C11.1008 4.271 10.9577 4.21173 10.8523 4.10624C10.7468 4.00075 10.6875 3.85768 10.6875 3.7085C10.6875 3.55931 10.7468 3.41624 10.8523 3.31075C10.9577 3.20526 11.1008 3.146 11.25 3.146H14.625C14.7742 3.146 14.9173 3.20526 15.0227 3.31075C15.1282 3.41624 15.1875 3.55931 15.1875 3.7085ZM7.47703 10.0605L3.9375 13.6008V11.5835C3.9375 11.4343 3.87824 11.2912 3.77275 11.1857C3.66726 11.0803 3.52418 11.021 3.375 11.021C3.22582 11.021 3.08274 11.0803 2.97725 11.1857C2.87176 11.2912 2.8125 11.4343 2.8125 11.5835V14.9585C2.8125 15.1077 2.87176 15.2508 2.97725 15.3562C3.08274 15.4617 3.22582 15.521 3.375 15.521H6.75C6.89918 15.521 7.04226 15.4617 7.14775 15.3562C7.25324 15.2508 7.3125 15.1077 7.3125 14.9585C7.3125 14.8093 7.25324 14.6662 7.14775 14.5607C7.04226 14.4553 6.89918 14.396 6.75 14.396H4.73273L8.27297 10.8565C8.37852 10.7509 8.43781 10.6078 8.43781 10.4585C8.43781 10.3092 8.37852 10.1661 8.27297 10.0605C8.16742 9.95498 8.02427 9.89568 7.875 9.89568C7.72573 9.89568 7.58258 9.95498 7.47703 10.0605Z" fill="#778B8E"/>
</svg>
