<svg width="19" height="18" viewBox="0 0 19 18" fill="none" xmlns="http://www.w3.org/2000/svg">
<g clip-path="url(#clip0_2074_6949)">
<path d="M17.375 7.87501H15.3577L12.3125 4.82977C12.2084 4.72485 12.0845 4.64167 11.948 4.58506C11.8115 4.52844 11.6651 4.49953 11.5173 4.50001H3.61344C3.42865 4.50035 3.2468 4.5462 3.08394 4.63352C2.92108 4.72083 2.78224 4.84692 2.67969 5.00063L0.594219 8.12532C0.532943 8.21792 0.500183 8.32647 0.5 8.43751V11.8125C0.5 12.1109 0.618526 12.397 0.829505 12.608C1.04048 12.819 1.32663 12.9375 1.625 12.9375H2.82031C2.94423 13.4215 3.22571 13.8505 3.62036 14.1568C4.01502 14.4631 4.5004 14.6294 5 14.6294C5.4996 14.6294 5.98498 14.4631 6.37964 14.1568C6.77429 13.8505 7.05577 13.4215 7.17969 12.9375H11.8203C11.9442 13.4215 12.2257 13.8505 12.6204 14.1568C13.015 14.4631 13.5004 14.6294 14 14.6294C14.4996 14.6294 14.985 14.4631 15.3796 14.1568C15.7743 13.8505 16.0558 13.4215 16.1797 12.9375H17.375C17.6734 12.9375 17.9595 12.819 18.1705 12.608C18.3815 12.397 18.5 12.1109 18.5 11.8125V9.00001C18.5 8.70164 18.3815 8.41549 18.1705 8.20451C17.9595 7.99353 17.6734 7.87501 17.375 7.87501ZM3.61344 5.62501H11.5173L13.7673 7.87501H2.11719L3.61344 5.62501ZM5 13.5C4.7775 13.5 4.55999 13.434 4.37498 13.3104C4.18998 13.1868 4.04578 13.0111 3.96064 12.8055C3.87549 12.6 3.85321 12.3738 3.89662 12.1555C3.94002 11.9373 4.04717 11.7368 4.2045 11.5795C4.36184 11.4222 4.56229 11.315 4.78052 11.2716C4.99875 11.2282 5.22495 11.2505 5.43052 11.3356C5.63609 11.4208 5.81179 11.565 5.9354 11.75C6.05902 11.935 6.125 12.1525 6.125 12.375C6.125 12.6734 6.00647 12.9595 5.79549 13.1705C5.58452 13.3815 5.29837 13.5 5 13.5ZM14 13.5C13.7775 13.5 13.56 13.434 13.375 13.3104C13.19 13.1868 13.0458 13.0111 12.9606 12.8055C12.8755 12.6 12.8532 12.3738 12.8966 12.1555C12.94 11.9373 13.0472 11.7368 13.2045 11.5795C13.3618 11.4222 13.5623 11.315 13.7805 11.2716C13.9988 11.2282 14.225 11.2505 14.4305 11.3356C14.6361 11.4208 14.8118 11.565 14.9354 11.75C15.059 11.935 15.125 12.1525 15.125 12.375C15.125 12.6734 15.0065 12.9595 14.7955 13.1705C14.5845 13.3815 14.2984 13.5 14 13.5ZM17.375 11.8125H16.1797C16.0558 11.3285 15.7743 10.8995 15.3796 10.5932C14.985 10.2869 14.4996 10.1206 14 10.1206C13.5004 10.1206 13.015 10.2869 12.6204 10.5932C12.2257 10.8995 11.9442 11.3285 11.8203 11.8125H7.17969C7.05577 11.3285 6.77429 10.8995 6.37964 10.5932C5.98498 10.2869 5.4996 10.1206 5 10.1206C4.5004 10.1206 4.01502 10.2869 3.62036 10.5932C3.22571 10.8995 2.94423 11.3285 2.82031 11.8125H1.625V9.00001H17.375V11.8125Z" fill="#0B1E21"/>
</g>
<defs>
<clipPath id="clip0_2074_6949">
<rect width="18" height="18" fill="white" transform="translate(0.5)"/>
</clipPath>
</defs>
</svg>
