<svg width="18" height="18" viewBox="0 0 18 18" fill="none" xmlns="http://www.w3.org/2000/svg">
<path d="M16.1479 5.46029L7.14792 14.4603C7.09567 14.5126 7.03364 14.5541 6.96535 14.5824C6.89706 14.6107 6.82387 14.6253 6.74995 14.6253C6.67603 14.6253 6.60283 14.6107 6.53454 14.5824C6.46626 14.5541 6.40422 14.5126 6.35198 14.4603L2.41448 10.5228C2.30893 10.4172 2.24963 10.2741 2.24963 10.1248C2.24963 9.97556 2.30893 9.8324 2.41448 9.72686C2.52003 9.62131 2.66318 9.56201 2.81245 9.56201C2.96171 9.56201 3.10487 9.62131 3.21042 9.72686L6.74995 13.2671L15.352 4.66436C15.4575 4.55881 15.6007 4.49951 15.7499 4.49951C15.8992 4.49951 16.0424 4.55881 16.1479 4.66436C16.2535 4.7699 16.3128 4.91306 16.3128 5.06232C16.3128 5.21159 16.2535 5.35475 16.1479 5.46029Z" fill="#0B1E21"/>
</svg>
