<svg width="18" height="18" viewBox="0 0 18 18" fill="none" xmlns="http://www.w3.org/2000/svg">
<path d="M16.148 5.46029L7.14804 14.4603C7.0958 14.5126 7.03376 14.5541 6.96547 14.5824C6.89719 14.6107 6.82399 14.6253 6.75007 14.6253C6.67615 14.6253 6.60295 14.6107 6.53467 14.5824C6.46638 14.5541 6.40434 14.5126 6.3521 14.4603L2.4146 10.5228C2.30905 10.4172 2.24976 10.2741 2.24976 10.1248C2.24976 9.97556 2.30905 9.8324 2.4146 9.72686C2.52015 9.62131 2.6633 9.56201 2.81257 9.56201C2.96184 9.56201 3.10499 9.62131 3.21054 9.72686L6.75007 13.2671L15.3521 4.66436C15.4576 4.55881 15.6008 4.49951 15.7501 4.49951C15.8993 4.49951 16.0425 4.55881 16.148 4.66436C16.2536 4.7699 16.3129 4.91306 16.3129 5.06232C16.3129 5.21159 16.2536 5.35475 16.148 5.46029Z" fill="white"/>
</svg>
