<svg width="14" height="14" viewBox="0 0 14 14" fill="none" xmlns="http://www.w3.org/2000/svg">
<path d="M7 4.375C6.48082 4.375 5.97331 4.52895 5.54163 4.81739C5.10995 5.10583 4.7735 5.5158 4.57482 5.99546C4.37614 6.47511 4.32415 7.00291 4.42544 7.51211C4.52673 8.02131 4.77673 8.48904 5.14384 8.85616C5.51096 9.22327 5.97869 9.47328 6.48789 9.57456C6.99709 9.67585 7.52489 9.62386 8.00454 9.42518C8.4842 9.2265 8.89417 8.89005 9.18261 8.45837C9.47105 8.02669 9.625 7.51918 9.625 7C9.62428 6.30403 9.34748 5.63677 8.85536 5.14464C8.36323 4.65252 7.69597 4.37572 7 4.375ZM7 8.75C6.65388 8.75 6.31554 8.64736 6.02775 8.45507C5.73997 8.26278 5.51566 7.98947 5.38321 7.6697C5.25076 7.34993 5.2161 6.99806 5.28363 6.65859C5.35115 6.31913 5.51782 6.00731 5.76256 5.76256C6.00731 5.51782 6.31913 5.35115 6.65859 5.28363C6.99806 5.2161 7.34993 5.25076 7.6697 5.38321C7.98947 5.51566 8.26278 5.73997 8.45507 6.02775C8.64736 6.31554 8.75 6.65388 8.75 7C8.75 7.46413 8.56563 7.90925 8.23744 8.23744C7.90925 8.56563 7.46413 8.75 7 8.75ZM9.625 1.3125H4.375C3.56304 1.31337 2.78459 1.6363 2.21044 2.21044C1.6363 2.78459 1.31337 3.56304 1.3125 4.375V9.625C1.31337 10.437 1.6363 11.2154 2.21044 11.7896C2.78459 12.3637 3.56304 12.6866 4.375 12.6875H9.625C10.437 12.6866 11.2154 12.3637 11.7896 11.7896C12.3637 11.2154 12.6866 10.437 12.6875 9.625V4.375C12.6866 3.56304 12.3637 2.78459 11.7896 2.21044C11.2154 1.6363 10.437 1.31337 9.625 1.3125ZM11.8125 9.625C11.8125 10.2052 11.582 10.7616 11.1718 11.1718C10.7616 11.582 10.2052 11.8125 9.625 11.8125H4.375C3.79484 11.8125 3.23844 11.582 2.8282 11.1718C2.41797 10.7616 2.1875 10.2052 2.1875 9.625V4.375C2.1875 3.79484 2.41797 3.23844 2.8282 2.8282C3.23844 2.41797 3.79484 2.1875 4.375 2.1875H9.625C10.2052 2.1875 10.7616 2.41797 11.1718 2.8282C11.582 3.23844 11.8125 3.79484 11.8125 4.375V9.625ZM10.5 4.15625C10.5 4.28604 10.4615 4.41292 10.3894 4.52084C10.3173 4.62876 10.2148 4.71288 10.0949 4.76255C9.97497 4.81222 9.84302 4.82521 9.71572 4.79989C9.58842 4.77457 9.47149 4.71207 9.37971 4.62029C9.28793 4.52851 9.22543 4.41158 9.20011 4.28428C9.17479 4.15698 9.18778 4.02503 9.23745 3.90511C9.28712 3.7852 9.37124 3.68271 9.47916 3.6106C9.58708 3.53849 9.71396 3.5 9.84375 3.5C10.0178 3.5 10.1847 3.56914 10.3078 3.69221C10.4309 3.81528 10.5 3.9822 10.5 4.15625Z" fill="white"/>
</svg>
