<svg width="18" height="19" viewBox="0 0 18 19" fill="none" xmlns="http://www.w3.org/2000/svg">
<path d="M7.875 5.9585C7.875 5.73599 7.94098 5.51849 8.0646 5.33348C8.18821 5.14847 8.36391 5.00428 8.56948 4.91913C8.77505 4.83398 9.00125 4.8117 9.21948 4.85511C9.43771 4.89852 9.63816 5.00567 9.7955 5.163C9.95283 5.32034 10.06 5.52079 10.1034 5.73902C10.1468 5.95725 10.1245 6.18345 10.0394 6.38901C9.95422 6.59458 9.81002 6.77028 9.62502 6.8939C9.44001 7.01752 9.2225 7.0835 9 7.0835C8.70163 7.0835 8.41548 6.96497 8.2045 6.75399C7.99353 6.54301 7.875 6.25686 7.875 5.9585ZM4.5 5.9585C4.5 4.76502 4.97411 3.62043 5.81802 2.77652C6.66193 1.9326 7.80653 1.4585 9 1.4585C10.1935 1.4585 11.3381 1.9326 12.182 2.77652C13.0259 3.62043 13.5 4.76502 13.5 5.9585C13.5 10.1737 9.45141 12.5355 9.28125 12.6347C9.19624 12.6833 9.10002 12.7088 9.00211 12.7088C8.90419 12.7088 8.80798 12.6833 8.72297 12.6347C8.54859 12.5355 4.5 10.1772 4.5 5.9585ZM5.625 5.9585C5.625 8.92568 8.145 10.8951 9 11.478C9.8543 10.8958 12.375 8.92568 12.375 5.9585C12.375 5.06339 12.0194 4.20495 11.3865 3.57201C10.7536 2.93908 9.89511 2.5835 9 2.5835C8.10489 2.5835 7.24645 2.93908 6.61351 3.57201C5.98058 4.20495 5.625 5.06339 5.625 5.9585ZM14.2573 10.7137C14.1188 10.668 13.968 10.6778 13.8367 10.7411C13.7053 10.8044 13.6037 10.9162 13.5532 11.053C13.5026 11.1897 13.5072 11.3408 13.5659 11.4742C13.6246 11.6077 13.7328 11.7132 13.8677 11.7684C15.0286 12.198 15.75 12.7732 15.75 13.271C15.75 14.2104 13.1822 15.521 9 15.521C4.81781 15.521 2.25 14.2104 2.25 13.271C2.25 12.7732 2.97141 12.198 4.13227 11.7691C4.2672 11.7139 4.37542 11.6084 4.43411 11.4749C4.4928 11.3415 4.49736 11.1904 4.44685 11.0537C4.39633 10.9169 4.29468 10.8051 4.16333 10.7418C4.03197 10.6785 3.88118 10.6687 3.74273 10.7144C2.05453 11.3367 1.125 12.2451 1.125 13.271C1.125 15.4633 5.18273 16.646 9 16.646C12.8173 16.646 16.875 15.4633 16.875 13.271C16.875 12.2451 15.9455 11.3367 14.2573 10.7137Z" fill="#778B8E"/>
</svg>
