<svg width="19" height="18" viewBox="0 0 19 18" fill="none" xmlns="http://www.w3.org/2000/svg">
<path d="M8.375 5.625C8.375 5.4025 8.44098 5.18499 8.5646 4.99998C8.68821 4.81498 8.86391 4.67078 9.06948 4.58564C9.27505 4.50049 9.50125 4.47821 9.71948 4.52162C9.93771 4.56502 10.1382 4.67217 10.2955 4.82951C10.4528 4.98684 10.56 5.18729 10.6034 5.40552C10.6468 5.62375 10.6245 5.84995 10.5394 6.05552C10.4542 6.26109 10.31 6.43679 10.125 6.5604C9.94001 6.68402 9.7225 6.75 9.5 6.75C9.20163 6.75 8.91548 6.63147 8.70451 6.42049C8.49353 6.20952 8.375 5.92337 8.375 5.625ZM5 5.625C5 4.43153 5.47411 3.28693 6.31802 2.44302C7.16193 1.59911 8.30653 1.125 9.5 1.125C10.6935 1.125 11.8381 1.59911 12.682 2.44302C13.5259 3.28693 14 4.43153 14 5.625C14 9.84023 9.95141 12.202 9.78125 12.3012C9.69624 12.3498 9.60002 12.3753 9.50211 12.3753C9.40419 12.3753 9.30798 12.3498 9.22297 12.3012C9.04859 12.202 5 9.84375 5 5.625ZM6.125 5.625C6.125 8.59219 8.645 10.5616 9.5 11.1445C10.3543 10.5623 12.875 8.59219 12.875 5.625C12.875 4.72989 12.5194 3.87145 11.8865 3.23851C11.2536 2.60558 10.3951 2.25 9.5 2.25C8.60489 2.25 7.74645 2.60558 7.11351 3.23851C6.48058 3.87145 6.125 4.72989 6.125 5.625ZM14.7573 10.3802C14.6188 10.3345 14.468 10.3443 14.3367 10.4076C14.2053 10.4709 14.1037 10.5827 14.0532 10.7195C14.0026 10.8562 14.0072 11.0073 14.0659 11.1407C14.1246 11.2742 14.2328 11.3797 14.3677 11.4349C15.5286 11.8645 16.25 12.4397 16.25 12.9375C16.25 13.8769 13.6822 15.1875 9.5 15.1875C5.31781 15.1875 2.75 13.8769 2.75 12.9375C2.75 12.4397 3.47141 11.8645 4.63227 11.4356C4.7672 11.3804 4.87542 11.2749 4.93411 11.1415C4.9928 11.008 4.99736 10.8569 4.94685 10.7202C4.89633 10.5834 4.79468 10.4716 4.66333 10.4083C4.53197 10.345 4.38118 10.3352 4.24273 10.3809C2.55453 11.0032 1.625 11.9116 1.625 12.9375C1.625 15.1298 5.68273 16.3125 9.5 16.3125C13.3173 16.3125 17.375 15.1298 17.375 12.9375C17.375 11.9116 16.4455 11.0032 14.7573 10.3802Z" fill="#0B1E21"/>
</svg>
