<svg width="18" height="19" viewBox="0 0 18 19" fill="none" xmlns="http://www.w3.org/2000/svg">
<path d="M10.6875 5.9585C11.1325 5.9585 11.5675 5.82654 11.9375 5.5793C12.3076 5.33207 12.5959 4.98067 12.7662 4.56953C12.9365 4.1584 12.9811 3.706 12.8943 3.26954C12.8075 2.83309 12.5932 2.43217 12.2785 2.11751C11.9638 1.80284 11.5629 1.58855 11.1265 1.50173C10.69 1.41491 10.2376 1.45947 9.82647 1.62977C9.41534 1.80007 9.06393 2.08845 8.8167 2.45846C8.56947 2.82847 8.43751 3.26349 8.43751 3.7085C8.43751 4.30523 8.67456 4.87753 9.09652 5.29949C9.51847 5.72144 10.0908 5.9585 10.6875 5.9585ZM10.6875 2.5835C10.91 2.5835 11.1275 2.64948 11.3125 2.77309C11.4975 2.89671 11.6417 3.07241 11.7269 3.27798C11.812 3.48355 11.8343 3.70975 11.7909 3.92797C11.7475 4.1462 11.6403 4.34666 11.483 4.50399C11.3257 4.66133 11.1252 4.76847 10.907 4.81188C10.6888 4.85529 10.4626 4.83301 10.257 4.74786C10.0514 4.66271 9.87572 4.51852 9.7521 4.33351C9.62849 4.14851 9.56251 3.931 9.56251 3.7085C9.56251 3.41013 9.68103 3.12398 9.89201 2.913C10.103 2.70202 10.3891 2.5835 10.6875 2.5835ZM15.1875 10.4585C15.1875 10.6077 15.1282 10.7508 15.0228 10.8562C14.9173 10.9617 14.7742 11.021 14.625 11.021C12.1423 11.021 10.902 9.76873 9.90563 8.76256C9.71298 8.56779 9.52876 8.38287 9.34313 8.21131L8.39883 10.3826L11.0145 12.2508C11.0873 12.3028 11.1467 12.3715 11.1877 12.4511C11.2286 12.5307 11.25 12.619 11.25 12.7085V16.646C11.25 16.7952 11.1907 16.9383 11.0853 17.0437C10.9798 17.1492 10.8367 17.2085 10.6875 17.2085C10.5383 17.2085 10.3952 17.1492 10.2898 17.0437C10.1843 16.9383 10.125 16.7952 10.125 16.646V12.9982L7.9404 11.4372L5.5786 16.8703C5.53489 16.9708 5.46275 17.0564 5.37106 17.1165C5.27938 17.1766 5.17213 17.2085 5.06251 17.2085C4.98527 17.2087 4.90885 17.1926 4.83821 17.1614C4.70147 17.1019 4.59392 16.9906 4.53921 16.8519C4.48449 16.7132 4.48708 16.5585 4.54641 16.4217L8.34891 7.67693C7.6943 7.56092 6.87797 7.76131 5.90907 8.28022C5.13633 8.70646 4.41512 9.22006 3.75962 9.81092C3.6502 9.90893 3.50679 9.96025 3.36004 9.95391C3.21328 9.94757 3.07483 9.88408 2.97427 9.777C2.87372 9.66992 2.81903 9.52776 2.82192 9.3809C2.8248 9.23403 2.88501 9.09412 2.98969 8.99108C3.16547 8.82584 7.32727 4.96709 9.93094 7.22764C10.2002 7.46108 10.4569 7.71983 10.7044 7.97084C11.6852 8.96084 12.6113 9.896 14.625 9.896C14.7742 9.896 14.9173 9.95526 15.0228 10.0607C15.1282 10.1662 15.1875 10.3093 15.1875 10.4585Z" fill="#778B8E"/>
</svg>
