<svg width="48" height="49" viewBox="0 0 48 49" fill="none" xmlns="http://www.w3.org/2000/svg">
<path d="M5.75995 42.3392L6.60121 35.7596C8.74259 35.9181 10.3486 35.4953 11.4193 34.4912C12.49 33.4871 13.1783 32.113 13.4842 30.369C13.7901 28.625 13.8411 26.6961 13.6372 24.5821H5.75995V6.6665H20.7496V26.9603C20.7496 32.5094 19.424 36.6844 16.7728 39.4854C14.1725 42.2864 10.5016 43.2376 5.75995 42.3392ZM27.2503 42.3392L28.0915 35.7596C30.2329 35.9181 31.8389 35.4953 32.9096 34.4912C33.9803 33.4871 34.6686 32.113 34.9745 30.369C35.2805 28.625 35.3314 26.6961 35.1275 24.5821H27.2503V6.6665H42.2399V26.9603C42.2399 32.5094 40.9143 36.6844 38.2631 39.4854C35.6628 42.2864 31.9919 43.2376 27.2503 42.3392Z" fill="white"/>
</svg>
