<svg width="19" height="18" viewBox="0 0 19 18" fill="none" xmlns="http://www.w3.org/2000/svg">
<path d="M16.7359 12.0937C16.8102 12.2226 16.8303 12.3757 16.792 12.5195C16.7536 12.6633 16.6599 12.786 16.5312 12.8608L9.78125 16.7983C9.69524 16.8485 9.59746 16.8749 9.49789 16.8749C9.39832 16.8749 9.30054 16.8485 9.21453 16.7983L2.46453 12.8608C2.33775 12.7846 2.24608 12.6616 2.20937 12.5183C2.17265 12.375 2.19385 12.223 2.26836 12.0953C2.34287 11.9675 2.46471 11.8742 2.6075 11.8356C2.75028 11.7971 2.90252 11.8163 3.03125 11.8891L9.5 15.6614L15.9687 11.8891C16.0977 11.8148 16.2508 11.7946 16.3946 11.833C16.5383 11.8713 16.6611 11.9651 16.7359 12.0937ZM15.9687 8.51408L9.5 12.2864L3.03125 8.51408C2.90317 8.45032 2.75561 8.43775 2.61859 8.47894C2.48157 8.52014 2.3654 8.61199 2.29372 8.73582C2.22204 8.85964 2.20024 9.00613 2.23276 9.14546C2.26528 9.28479 2.34967 9.4065 2.46875 9.4858L9.21875 13.4233C9.30476 13.4735 9.40254 13.4999 9.50211 13.4999C9.60168 13.4999 9.69946 13.4735 9.78547 13.4233L16.5355 9.4858C16.6003 9.44912 16.6572 9.39993 16.7029 9.34108C16.7485 9.28223 16.7821 9.2149 16.8015 9.14299C16.8209 9.07108 16.8259 8.99603 16.8161 8.92219C16.8063 8.84835 16.7819 8.77719 16.7444 8.71285C16.7069 8.6485 16.6569 8.59225 16.5975 8.54736C16.538 8.50246 16.4703 8.46983 16.3981 8.45134C16.326 8.43284 16.2508 8.42887 16.1771 8.43964C16.1034 8.45041 16.0326 8.47572 15.9687 8.51408ZM2.1875 5.62494C2.18772 5.52642 2.21382 5.42969 2.26318 5.34442C2.31254 5.25915 2.38343 5.18835 2.46875 5.13908L9.21875 1.20158C9.30476 1.15143 9.40254 1.125 9.50211 1.125C9.60168 1.125 9.69946 1.15143 9.78547 1.20158L16.5355 5.13908C16.6204 5.18862 16.6908 5.25955 16.7398 5.3448C16.7887 5.43005 16.8145 5.52664 16.8145 5.62494C16.8145 5.72325 16.7887 5.81984 16.7398 5.90509C16.6908 5.99034 16.6204 6.06126 16.5355 6.1108L9.78547 10.0483C9.69946 10.0985 9.60168 10.1249 9.50211 10.1249C9.40254 10.1249 9.30476 10.0985 9.21875 10.0483L2.46875 6.1108C2.38343 6.06154 2.31254 5.99074 2.26318 5.90547C2.21382 5.8202 2.18772 5.72347 2.1875 5.62494ZM3.86656 5.62494L9.5 8.91135L15.1334 5.62494L9.5 2.33854L3.86656 5.62494Z" fill="#0B1E21"/>
</svg>
