<svg width="14" height="14" viewBox="0 0 14 14" fill="none" xmlns="http://www.w3.org/2000/svg">
<path d="M12.5172 1.43229C12.4494 1.37375 12.367 1.33483 12.2787 1.3197C12.1904 1.30457 12.0997 1.31381 12.0163 1.34643L0.93332 5.68369C0.77625 5.74477 0.643271 5.85522 0.554404 5.99841C0.465538 6.14161 0.425593 6.30979 0.440583 6.47765C0.455574 6.64551 0.524689 6.80396 0.637523 6.92914C0.750357 7.05432 0.900803 7.13946 1.06621 7.17174L3.93785 7.73557V10.9375C3.93729 11.1119 3.98912 11.2825 4.08662 11.4271C4.18413 11.5717 4.32282 11.6837 4.48473 11.7485C4.64638 11.8145 4.82415 11.8304 4.99493 11.794C5.16571 11.7576 5.32159 11.6707 5.44231 11.5446L6.82699 10.1085L9.02379 12.0313C9.18228 12.1719 9.3867 12.2497 9.59855 12.25C9.69139 12.2499 9.78365 12.2354 9.87199 12.2068C10.0163 12.161 10.1462 12.0782 10.2485 11.9666C10.3509 11.855 10.4223 11.7186 10.4555 11.5708L12.6753 1.91408C12.6951 1.82699 12.6909 1.73614 12.6631 1.65127C12.6352 1.56639 12.5848 1.49069 12.5172 1.43229ZM9.17363 3.40104L4.27418 6.90979L1.56168 6.37768L9.17363 3.40104ZM4.81285 10.9375V8.34096L6.16855 9.52987L4.81285 10.9375ZM9.59965 11.375L5.07809 7.41018L11.5859 2.74588L9.59965 11.375Z" fill="white"/>
</svg>
