<svg width="14" height="14" viewBox="0 0 14 14" fill="none" xmlns="http://www.w3.org/2000/svg">
<path d="M10.2576 7.92094L8.50757 7.04594C8.43869 7.01161 8.36196 6.99606 8.28515 7.00086C8.20833 7.00566 8.13414 7.03064 8.07007 7.07328L7.26671 7.60922C6.89793 7.40649 6.59444 7.103 6.39171 6.73422L6.92765 5.93086C6.97029 5.86678 6.99526 5.7926 7.00007 5.71578C7.00487 5.63897 6.98932 5.56224 6.95499 5.49336L6.07999 3.74336C6.04372 3.67012 5.98767 3.6085 5.91817 3.56549C5.84867 3.52247 5.76852 3.49979 5.68679 3.5C5.10663 3.5 4.55023 3.73047 4.13999 4.1407C3.72976 4.55094 3.49929 5.10734 3.49929 5.6875C3.50074 6.96341 4.00823 8.18665 4.91044 9.08885C5.81264 9.99106 7.03588 10.4986 8.31179 10.5C8.59906 10.5 8.88351 10.4434 9.14891 10.3335C9.41431 10.2236 9.65546 10.0624 9.85859 9.8593C10.0617 9.65617 10.2228 9.41502 10.3328 9.14962C10.4427 8.88422 10.4993 8.59977 10.4993 8.3125C10.4993 8.23122 10.4768 8.15153 10.4341 8.08237C10.3914 8.01321 10.3303 7.95731 10.2576 7.92094ZM8.31179 9.625C7.26785 9.62384 6.26701 9.20863 5.52883 8.47045C4.79066 7.73228 4.37545 6.73143 4.37429 5.6875C4.3742 5.38405 4.47927 5.08994 4.6716 4.85523C4.86394 4.62052 5.13166 4.45971 5.42921 4.40016L6.05702 5.65797L5.52273 6.45312C5.4828 6.51302 5.45827 6.58183 5.4513 6.65347C5.44434 6.72512 5.45516 6.79737 5.4828 6.86383C5.79583 7.60779 6.38767 8.19963 7.13163 8.51266C7.19829 8.54153 7.27109 8.55335 7.34346 8.54705C7.41583 8.54074 7.4855 8.51652 7.54616 8.47656L8.34515 7.94391L9.60296 8.57172C9.54295 8.86961 9.38143 9.13745 9.14596 9.32954C8.91049 9.52162 8.61566 9.62605 8.31179 9.625ZM6.99929 1.3125C6.01736 1.31229 5.05209 1.5663 4.19746 2.04981C3.34282 2.53333 2.62792 3.22987 2.12235 4.07165C1.61678 4.91342 1.33775 5.87176 1.31244 6.85336C1.28712 7.83497 1.51637 8.80641 1.97788 9.67313L1.35718 11.5352C1.30576 11.6894 1.2983 11.8549 1.33563 12.013C1.37296 12.1712 1.4536 12.3159 1.56852 12.4308C1.68344 12.5457 1.82809 12.6263 1.98626 12.6637C2.14444 12.701 2.30988 12.6935 2.46405 12.6421L4.32616 12.0214C5.08893 12.4271 5.93409 12.6537 6.79751 12.684C7.66092 12.7143 8.51989 12.5475 9.30922 12.1963C10.0985 11.845 10.7975 11.3186 11.353 10.6569C11.9085 9.9952 12.3059 9.21566 12.5151 8.37743C12.7244 7.53921 12.7399 6.66433 12.5605 5.81921C12.3812 4.97409 12.0116 4.18093 11.48 3.49995C10.9483 2.81897 10.2685 2.26807 9.49211 1.88905C8.71575 1.51002 7.86323 1.31285 6.99929 1.3125ZM6.99929 11.8125C6.15326 11.8131 5.32208 11.5903 4.58976 11.1666C4.53614 11.1355 4.47653 11.1162 4.41487 11.1099C4.35321 11.1036 4.29091 11.1104 4.2321 11.13L2.18679 11.8125L2.86874 9.76719C2.8884 9.70842 2.89535 9.64614 2.88912 9.58448C2.8829 9.52282 2.86365 9.46319 2.83265 9.40953C2.30216 8.49237 2.08918 7.42579 2.22673 6.37523C2.36428 5.32467 2.84468 4.34887 3.5934 3.5992C4.34212 2.84953 5.31732 2.3679 6.3677 2.22902C7.41808 2.09014 8.48494 2.30178 9.40277 2.83111C10.3206 3.36043 11.0381 4.17786 11.4439 5.15657C11.8498 6.13528 11.9213 7.22057 11.6474 8.24408C11.3735 9.26759 10.7695 10.1721 9.92909 10.8173C9.08867 11.4625 8.05881 11.8123 6.99929 11.8125Z" fill="white"/>
</svg>
